<svg xmlns="http://www.w3.org/2000/svg" viewBox="0 0 28.21 33.04">
  <defs>
    <style>
      .a {
        fill: #fff;
      }
    </style>
  </defs>
  <title>company</title>
  <g>
    <g>
      <path class="a" d="M6.78,5.83A.82.82,0,0,0,6,6.66a.84.84,0,0,0,.24.58.87.87,0,0,0,.59.24.83.83,0,0,0,.58-.24.81.81,0,0,0,0-1.17A.83.83,0,0,0,6.78,5.83Z"/>
      <path class="a" d="M14.11,5.83a.82.82,0,0,0-.83.83.84.84,0,0,0,.24.58.87.87,0,0,0,.59.24.83.83,0,0,0,.58-.24.83.83,0,0,0,0-1.17A.84.84,0,0,0,14.11,5.83Z"/>
      <path class="a" d="M21.44,5.83a.82.82,0,0,0-.83.83.84.84,0,0,0,.24.58.87.87,0,0,0,.59.24.83.83,0,0,0,0-1.65Z"/>
    </g>
    <g>
      <path class="a" d="M6.78,12.16a.87.87,0,0,0-.59.24.83.83,0,0,0,0,1.17.87.87,0,0,0,.59.24.83.83,0,0,0,.58-.24.81.81,0,0,0,0-1.17A.83.83,0,0,0,6.78,12.16Z"/>
      <path class="a" d="M14.11,12.16a.87.87,0,0,0-.59.24.83.83,0,0,0,0,1.17.87.87,0,0,0,.59.24.84.84,0,0,0,.58-.24.83.83,0,0,0,0-1.17A.83.83,0,0,0,14.11,12.16Z"/>
      <path class="a" d="M21.44,12.16a.83.83,0,0,0-.59,1.41.87.87,0,0,0,.59.24.83.83,0,0,0,0-1.65Z"/>
    </g>
    <g>
      <path class="a" d="M6.78,18.49a.87.87,0,0,0-.59.24.84.84,0,0,0-.24.58.82.82,0,0,0,.83.83.83.83,0,0,0,.58-.24.81.81,0,0,0,0-1.17A.83.83,0,0,0,6.78,18.49Z"/>
      <path class="a" d="M14.11,18.49a.87.87,0,0,0-.59.24.84.84,0,0,0-.24.58.82.82,0,0,0,.83.83.83.83,0,0,0,.58-.24.83.83,0,0,0,0-1.17A.84.84,0,0,0,14.11,18.49Z"/>
      <path class="a" d="M21.44,18.49a.87.87,0,0,0-.59.24.84.84,0,0,0-.24.58.82.82,0,0,0,.83.83.83.83,0,0,0,0-1.65Z"/>
    </g>
    <path class="a" d="M24.37,0H3.85A3.85,3.85,0,0,0,0,3.84V32.21A.83.83,0,0,0,.83,33H27.39a.83.83,0,0,0,.82-.83V3.84A3.84,3.84,0,0,0,24.37,0ZM13.28,31.39H10.11V28A2.19,2.19,0,0,1,12.3,25.8h1Zm4.83,0H14.93V25.8h1A2.19,2.19,0,0,1,18.11,28Zm8.45,0h-6.8V28a3.85,3.85,0,0,0-3.84-3.85H12.3A3.86,3.86,0,0,0,8.45,28v3.4H1.65V3.84a2.2,2.2,0,0,1,2.2-2.19H24.37a2.2,2.2,0,0,1,2.19,2.19Z"/>
  </g>
</svg>
