<svg xmlns="http://www.w3.org/2000/svg" viewBox="0 0 68.99 86.55"><defs><style>.cls-1{fill:#fff;}</style></defs><title>pin</title><g id="Layer_2" data-name="Layer 2"><g id="company_expand"><path d="M69,34.5c0,19-34.49,52.05-34.49,52.05S0,53.55,0,34.5a34.5,34.5,0,1,1,69,0Z"/><path class="cls-1" d="M49.3,26.24A6.86,6.86,0,1,0,56,33.09,6.78,6.78,0,0,0,49.3,26.24Zm0,11.25a4.4,4.4,0,1,1,4.31-4.4A4.35,4.35,0,0,1,49.3,37.49Z"/><path class="cls-1" d="M27.63,26.24a1.21,1.21,0,0,0-1.22,1.19V38.75a1.22,1.22,0,0,0,2.44,0V27.43A1.21,1.21,0,0,0,27.63,26.24Z"/><path class="cls-1" d="M24.76,34.79a5.35,5.35,0,0,0-2.17-4.31,3.49,3.49,0,0,0,.18-1.08,3.36,3.36,0,0,0-6.72,0,3.49,3.49,0,0,0,.18,1.08,5.35,5.35,0,1,0,8.53,4.31Zm-6.27-5.41a.92.92,0,0,1,1.84,0c0,.05,0,.09,0,.13a.92.92,0,0,1-1.82,0S18.49,29.43,18.49,29.38Zm.92,8.36a2.95,2.95,0,0,1,0-5.89,2.89,2.89,0,0,1,1.62.49,2.94,2.94,0,0,1-1.62,5.4Z"/><path class="cls-1" d="M35.86,40.14A5.35,5.35,0,0,0,39,30.48a3.22,3.22,0,0,0,.18-1.08,3.36,3.36,0,1,0-6.71,0,3.22,3.22,0,0,0,.18,1.08,5.35,5.35,0,0,0,3.17,9.66Zm0-2.4a2.94,2.94,0,0,1-1.61-5.4,2.91,2.91,0,0,1,3.23,0,2.94,2.94,0,0,1-1.62,5.4ZM35,29.38a.92.92,0,0,1,1.83,0,.53.53,0,0,1,0,.13.91.91,0,0,1-1.81,0A.53.53,0,0,1,35,29.38Z"/></g></g></svg>