<svg xmlns="http://www.w3.org/2000/svg" viewBox="0 0 35 35">
  <defs>
    <style>
      .a {
        fill: #fff;
      }
    </style>
  </defs>
  <title>profile</title>
  <g>
    <path class="a" d="M35,17.5A17.5,17.5,0,1,0,17.5,35,17.49,17.49,0,0,0,35,17.5ZM17.5,2.05a15.45,15.45,0,0,1,12.8,24.1,17.48,17.48,0,0,0-25.6,0A15.45,15.45,0,0,1,17.5,2.05ZM6,27.79a15.43,15.43,0,0,1,23,0A15.42,15.42,0,0,1,6,27.79Z"/>
    <path class="a" d="M17.5,18.53a6.16,6.16,0,0,0,6.15-6.16v-2a6.15,6.15,0,1,0-12.3,0v2A6.16,6.16,0,0,0,17.5,18.53Zm-4.1-8.21a4.1,4.1,0,0,1,8.2,0v2a4.1,4.1,0,0,1-8.2,0Z"/>
  </g>
</svg>
