<svg xmlns="http://www.w3.org/2000/svg" viewBox="0 0 35.66 35.48">
  <defs>
    <style>
      .a {
        fill: #fff;
      }
    </style>
  </defs>
  <title>works</title>
  <g>
    <path class="a" d="M32.91,22.26a.89.89,0,0,0-.89.89V31a2.66,2.66,0,0,1-2.66,2.66H4.44A2.66,2.66,0,0,1,1.78,31V7.9A2.67,2.67,0,0,1,4.44,5.23h7.88a.89.89,0,1,0,0-1.77H4.44A4.44,4.44,0,0,0,0,7.9V31a4.45,4.45,0,0,0,4.44,4.44H29.36A4.46,4.46,0,0,0,33.8,31V23.15A.89.89,0,0,0,32.91,22.26Z"/>
    <path class="a" d="M33.45,1.17a4,4,0,0,0-5.66,0L12,17a.92.92,0,0,0-.23.39L9.64,24.93a.87.87,0,0,0,.23.86.88.88,0,0,0,.86.23l7.52-2.08a1,1,0,0,0,.4-.23L34.49,7.86a4,4,0,0,0,0-5.65ZM13.89,17.59l13-13L31,8.81l-13,13Zm-.84,1.68,3.34,3.34-4.62,1.28ZM33.23,6.61l-.94.94L28.11,3.37l.94-.94a2.22,2.22,0,0,1,3.14,0l1,1A2.22,2.22,0,0,1,33.23,6.61Z"/>
  </g>
</svg>
